<svg width="100" height="100" viewBox="0 0 100 100" xmlns="http://www.w3.org/2000/svg">
  <!-- Radiating lines around the bulb -->
  <line x1="50" y1="8" x2="50" y2="18" stroke="white" stroke-width="4" stroke-linecap="round"/>
  <line x1="73.54" y1="16.46" x2="66.46" y2="23.54" stroke="white" stroke-width="4" stroke-linecap="round"/>
  <line x1="82" y1="40" x2="72" y2="40" stroke="white" stroke-width="4" stroke-linecap="round"/>
  <line x1="73.54" y1="63.54" x2="66.46" y2="56.46" stroke="white" stroke-width="4" stroke-linecap="round"/>
  <line x1="26.46" y1="16.46" x2="33.54" y2="23.54" stroke="white" stroke-width="4" stroke-linecap="round"/>
  <line x1="18" y1="40" x2="28" y2="40" stroke="white" stroke-width="4" stroke-linecap="round"/>
  <line x1="26.46" y1="63.54" x2="33.54" y2="56.46" stroke="white" stroke-width="4" stroke-linecap="round"/>
  
  <!-- Main lightbulb shape -->
  <path d="M50 25 C60 25, 68 33, 68 43 C68 50, 65 56, 60 60 L60 70 C60 72, 58 74, 56 74 L44 74 C42 74, 40 72, 40 70 L40 60 C35 56, 32 50, 32 43 C32 33, 40 25, 50 25 Z" fill="none" stroke="white" stroke-width="4"/>
  
  <!-- Base of lightbulb -->
  <rect x="42" y="74" width="16" height="6" rx="2" fill="white"/>
  <rect x="44" y="82" width="12" height="4" rx="2" fill="white"/>
  
  <!-- Checkmark inside bulb -->
  <path d="M42 43 L47 48 L58 37" fill="none" stroke="white" stroke-width="3" stroke-linecap="round" stroke-linejoin="round"/>
</svg>